Coordinates
version=1
nRows=6
nColumns=36
inDegrees=yes

Units are S.I. units (second, meters, Newtons, ...)
If the header above contains a line with 'inDegrees', this indicates whether rotational values are in degrees (yes) or radians (no).

endheader
time	pelvis_tilt	pelvis_list	pelvis_rotation	pelvis_tx	pelvis_ty	pelvis_tz	hip_flexion_r	hip_adduction_r	hip_rotation_r	knee_angle_r	knee_angle_r_beta	ankle_angle_r	subtalar_angle_r	mtp_angle_r	hip_flexion_l	hip_adduction_l	hip_rotation_l	knee_angle_l	knee_angle_l_beta	ankle_angle_l	subtalar_angle_l	mtp_angle_l	lumbar_extension	lumbar_bending	lumbar_rotation	arm_flex_r	arm_add_r	arm_rot_r	elbow_flex_r	pro_sup_r	arm_flex_l	arm_add_l	arm_rot_l	elbow_flex_l	pro_sup_l
      4.50000000	      2.46681323	      0.65075296	     -1.02255297	      0.23932388	      1.00446590	     -0.07407983	      1.87690878	     -4.53620536	      0.22649439	     12.79430137	      0.22330268	     11.23427211	    -18.31719095	     -7.49999987	      4.18218056	     -3.13398949	      1.79342879	     12.27477391	      0.21423522	      7.31078071	    -18.49874407	     -7.49999987	    -14.16325925	      1.38175754	     -2.31973294	      6.50271877	     -4.74987776	      2.15931392	     27.61297265	     94.24968909	      8.35032893	     -2.31968503	      1.40395189	     32.45280394	     94.43553193
      4.50416670	      2.67409125	      0.67660138	     -1.11986128	      0.23964221	      1.00491460	     -0.07405197	      1.57354637	     -4.61791139	      0.09990266	     12.61913018	      0.22024537	     11.27521283	    -18.18624172	     -7.49999987	      3.81371495	     -3.05853522	      1.74464844	     12.06362846	      0.21055004	      7.24881043	    -18.56903476	     -7.49999987	    -14.37677170	      1.42185882	     -2.28852618	      6.45454670	     -4.97575610	      2.96875027	     27.50422133	     91.24741184	      8.22726179	     -2.35023264	      2.40779270	     32.06120955	     91.19414804
      4.50833330	      2.72885726	      0.68779035	     -1.21424127	      0.23871733	      1.00611551	     -0.07415980	      1.48486574	     -4.67843874	     -0.02948972	     12.47972860	      0.21781235	     11.31100333	    -17.97243004	     -7.49999987	      3.68555297	     -2.99840074	      1.69411381	     11.94677049	      0.20851048	      7.20547277	    -18.61799838	     -7.49999987	    -14.48283310	      1.46675883	     -2.22836735	      6.40142302	     -4.97503956	      1.75924346	     27.33740595	     95.00090419	      8.11365927	     -2.14744576	      1.59493185	     31.68800986	     94.53333082
      4.51250000	      2.91680819	      0.66321651	     -1.23731107	      0.23871649	      1.00437648	     -0.07330013	      1.24349906	     -4.62211385	      0.02918730	     12.30210537	      0.21471224	     11.53104123	    -17.70731406	     -7.49999987	      3.46839355	     -3.01883856	      1.67720013	     11.89364150	      0.20758320	      7.30116429	    -18.63229300	     -7.49999987	    -14.77804539	      1.50080210	     -2.20219804	      6.43183228	     -5.03820095	      1.77064229	     27.12127061	     94.44709829	      8.08144481	     -2.12550213	      1.72456688	     31.34654583	     93.99328877
      4.51666670	      2.99349966	      0.67036359	     -1.24846847	      0.23880264	      1.00595213	     -0.07445284	      1.11532316	     -4.65774905	     -0.14970436	     12.18656958	      0.21269576	     11.81296947	    -17.12313194	     -7.49999987	      3.32932487	     -2.96666557	      1.86141147	     11.76209715	      0.20528732	      7.06054001	    -19.05762768	     -7.49999987	    -14.91668386	      1.54405865	     -2.20821283	      6.41224662	     -5.23664722	      2.28832861	     26.98371310	     94.72406851	      8.01090523	     -2.20234332	      2.43882462	     31.00064201	     93.49372016
      4.52083330	      3.22333103	      0.64905229	     -1.25348773	      0.23868001	      1.00326565	     -0.07418134	      0.82409380	     -4.59029356	      0.09097773	     12.03875660	      0.21011594	     11.99858031	    -16.84637215	     -7.49999987	      3.13086488	     -2.95234722	      1.80879984	     11.92801799	      0.20818319	      7.16920749	    -18.96196934	     -7.49999987	    -15.25596915	      1.61266672	     -2.21535858	      6.41075988	     -5.29861707	      2.06300739	     26.86868786	     93.91719275	      7.95000013	     -2.12744180	      2.40687993	     30.71090889	     92.74664633
